<svg id="Capa_1" enable-background="new 0 0 512 512" height="512" viewBox="0 0 512 512" width="512" xmlns="http://www.w3.org/2000/svg" xmlns:xlink="http://www.w3.org/1999/xlink"><linearGradient id="SVGID_1_" gradientUnits="userSpaceOnUse" x1="256" x2="256" y1="406" y2="106"><stop offset="0" stop-color="#00b59c"/><stop offset="1" stop-color="#9cffac"/></linearGradient><linearGradient id="SVGID_2_" gradientUnits="userSpaceOnUse" x1="241" x2="241" y1="346" y2="196"><stop offset="0" stop-color="#c3ffe8"/><stop offset=".9973" stop-color="#f0fff4"/></linearGradient><g id="Cloud_refresh_8_"><g><g><path d="m421 226c0-66.167-53.818-120-120-120-31.699 0-61.934 12.803-84.463 35.435-67.529-21.114-137.365 21.15-152.227 88.74-37.265 11.499-64.31 46.054-64.31 85.825 0 49.629 41.371 90 91 90h330c49.629 0 91-40.371 91-90s-41.371-90-91-90z" fill="url(#SVGID_1_)"/></g></g><g><g><path d="m286 316h-45c-16.553 0-30-13.462-30-30s13.447-30 30-30h8.789l-4.395 4.395c-5.859 5.859-5.859 15.352 0 21.211s15.351 5.859 21.211 0l29.982-29.982c5.806-5.791 5.897-15.366 0-21.248l-29.982-29.982c-5.859-5.859-15.352-5.859-21.211 0s-5.859 15.352 0 21.211l4.395 4.395h-8.789c-33.076 0-60 26.909-60 60s26.924 60 60 60h45c8.291 0 15-6.709 15-15s-6.709-15-15-15z" fill="url(#SVGID_2_)"/></g></g></g></svg>